<svg width="24" height="24" viewBox="0 0 24 24" fill="none" xmlns="http://www.w3.org/2000/svg">
<g clip-path="url(#clip0_3_47)">
<path d="M22.8533 1.148C22.1734 0.469196 21.252 0.0879364 20.2913 0.0879364C19.3305 0.0879364 18.4091 0.469196 17.7293 1.148L1.46526 17.412C0.999511 17.8751 0.630221 18.426 0.378757 19.0328C0.127293 19.6396 -0.00135384 20.2902 0.000259122 20.947V23C0.000259122 23.2652 0.105616 23.5196 0.293152 23.7071C0.480689 23.8946 0.735043 24 1.00026 24H3.05326C3.71002 24.0019 4.36063 23.8734 4.96741 23.6221C5.5742 23.3708 6.12511 23.0017 6.58826 22.536L22.8533 6.271C23.5318 5.59119 23.9128 4.66997 23.9128 3.7095C23.9128 2.74903 23.5318 1.8278 22.8533 1.148V1.148ZM5.17426 21.122C4.61026 21.6822 3.84822 21.9977 3.05326 22H2.00026V20.947C1.99925 20.5529 2.07642 20.1625 2.2273 19.7985C2.37818 19.4344 2.59977 19.1039 2.87926 18.826L15.2223 6.483L17.5223 8.783L5.17426 21.122ZM21.4383 4.857L18.9323 7.364L16.6323 5.069L19.1393 2.562C19.2903 2.41131 19.4695 2.29184 19.6667 2.21041C19.8639 2.12898 20.0752 2.08719 20.2885 2.08742C20.5019 2.08765 20.7131 2.1299 20.9101 2.21176C21.1071 2.29362 21.2861 2.41348 21.4368 2.5645C21.5875 2.71552 21.7069 2.89474 21.7884 3.09193C21.8698 3.28913 21.9116 3.50042 21.9113 3.71377C21.9111 3.92711 21.8689 4.13832 21.787 4.33533C21.7051 4.53235 21.5853 4.71131 21.4343 4.862L21.4383 4.857Z" fill="#7A4E2D"/>
</g>
<defs>
<clipPath id="clip0_3_47">
<rect width="24" height="24" fill="white"/>
</clipPath>
</defs>
</svg>
